<svg width="60.000000" height="60.000000" viewBox="0 0 60 60" fill="none" xmlns="http://www.w3.org/2000/svg" xmlns:xlink="http://www.w3.org/1999/xlink">
	<desc>
			Created with Pixso.
	</desc>
	<defs>
		<filter id="filter_1_181_dd" x="-3.000000" y="13.000000" width="66.000000" height="66.000000" filterUnits="userSpaceOnUse" color-interpolation-filters="sRGB">
			<feFlood flood-opacity="0" result="BackgroundImageFix"/>
			<feColorMatrix in="SourceAlpha" type="matrix" values="0 0 0 0 0 0 0 0 0 0 0 0 0 0 0 0 0 0 127 0" result="hardAlpha"/>
			<feOffset dx="0" dy="8"/>
			<feGaussianBlur stdDeviation="3.66667"/>
			<feComposite in2="hardAlpha" operator="out" k2="-1" k3="1"/>
			<feColorMatrix type="matrix" values="0 0 0 0 0.21569 0 0 0 0 0.40784 0 0 0 0 0.55686 0 0 0 0.25 0"/>
			<feBlend mode="normal" in2="BackgroundImageFix" result="effect_dropShadow_1"/>
			<feBlend mode="normal" in="SourceGraphic" in2="effect_dropShadow_1" result="shape"/>
		</filter>
		<filter id="filter_1_182_dd" x="-11.000000" y="-10.000000" width="82.000000" height="82.000000" filterUnits="userSpaceOnUse" color-interpolation-filters="sRGB">
			<feFlood flood-opacity="0" result="BackgroundImageFix"/>
			<feColorMatrix in="SourceAlpha" type="matrix" values="0 0 0 0 0 0 0 0 0 0 0 0 0 0 0 0 0 0 127 0" result="hardAlpha"/>
			<feOffset dx="0" dy="1"/>
			<feGaussianBlur stdDeviation="3.66667"/>
			<feComposite in2="hardAlpha" operator="out" k2="-1" k3="1"/>
			<feColorMatrix type="matrix" values="0 0 0 0 0.21569 0 0 0 0 0.40784 0 0 0 0 0.55686 0 0 0 0.3 0"/>
			<feBlend mode="normal" in2="BackgroundImageFix" result="effect_dropShadow_1"/>
			<feBlend mode="normal" in="SourceGraphic" in2="effect_dropShadow_1" result="shape"/>
		</filter>
	</defs>
	<g filter="url(#filter_1_181_dd)">
		<path id="Shadow" d="M30 60C42.15 60 52 50.15 52 38C52 25.84 42.15 16 30 16C17.84 16 8 25.84 8 38C8 50.15 17.84 60 30 60Z" fill="#000000" fill-opacity="0" fill-rule="evenodd"/>
		<path id="Shadow" d="M52 38C52 25.84 42.15 16 30 16C17.84 16 8 25.84 8 38C8 50.15 17.84 60 30 60C42.15 60 52 50.15 52 38Z" stroke="#38AEF5" stroke-opacity="0" stroke-width="0.000000"/>
	</g>
	<g filter="url(#filter_1_182_dd)">
		<path id="Oval" d="M30 60C46.56 60 60 46.56 60 30C60 13.43 46.56 0 30 0C13.43 0 0 13.43 0 30C0 46.56 13.43 60 30 60Z" fill="#2196F3" fill-opacity="1.000000" fill-rule="evenodd"/>
		<path id="Oval" d="M60 30C60 46.56 46.56 60 30 60C13.43 60 0 46.56 0 30C0 13.43 13.43 0 30 0C46.56 0 60 13.43 60 30ZM54.09 20.01C55.36 23.08 56 26.41 56 30C56 33.58 55.36 36.91 54.09 39.98C52.82 43.04 50.92 45.84 48.38 48.38C45.84 50.92 43.04 52.82 39.98 54.09C36.91 55.36 33.58 56 30 56C26.41 56 23.08 55.36 20.01 54.09C16.95 52.82 14.15 50.92 11.61 48.38C9.07 45.84 7.17 43.04 5.9 39.98C4.63 36.91 4 33.58 4 30C4 26.41 4.63 23.08 5.9 20.01C7.17 16.95 9.07 14.15 11.61 11.61C14.15 9.07 16.95 7.17 20.01 5.9C23.08 4.63 26.41 4 30 4C33.58 4 36.91 4.63 39.98 5.9C43.04 7.17 45.84 9.07 48.38 11.61C50.92 14.15 52.82 16.95 54.09 20.01Z" fill="#42A5F5" fill-opacity="1.000000" fill-rule="evenodd"/>
	</g>
	<mask id="mask1_183" mask-type="alpha" maskUnits="userSpaceOnUse" x="0.000000" y="0.000000" width="60.000000" height="60.000000">
		<path id="Oval" d="M30 60C46.56 60 60 46.56 60 30C60 13.43 46.56 0 30 0C13.43 0 0 13.43 0 30C0 46.56 13.43 60 30 60Z" fill="#FFFFFF" fill-opacity="1.000000" fill-rule="evenodd"/>
	</mask>
	<g mask="url(#mask1_183)">
		<path id="Line" d="M2.25 21L57 21" stroke="#42A5F5" stroke-opacity="1.000000" stroke-width="4.000000" stroke-linecap="square"/>
		<path id="Line" d="M2.25 36.75L57 36.75" stroke="#42A5F5" stroke-opacity="1.000000" stroke-width="4.000000" stroke-linecap="square"/>
		<path id="Path 2" d="M29.25 4.5C29.25 4.5 19.28 16.07 19.5 30.75C19.71 45.42 29.25 55.5 29.25 55.5" stroke="#42A5F5" stroke-opacity="1.000000" stroke-width="4.000000" stroke-linejoin="round" stroke-linecap="round"/>
		<path id="Path 2" d="M30 4.5C30 4.5 39.96 16.07 39.74 30.75C39.53 45.42 30 55.5 30 55.5" stroke="#42A5F5" stroke-opacity="1.000000" stroke-width="4.000000" stroke-linejoin="round" stroke-linecap="round"/>
	</g>
	<mask id="mask_1_190" fill="white">
		<path id="Combined Shape" d="M45.4347 19.7809C44.7984 18.6787 41.8657 18.762 40.8475 18.8259C40.617 18.8405 40.3946 18.9124 40.1946 19.0278L34.0768 22.5599L19.7791 13.3367C19.5777 13.2068 19.3191 13.1951 19.1115 13.3149L17.8389 14.0228C17.6727 14.1187 17.5534 14.2786 17.5169 14.4669L17.3267 15.4504C17.2948 15.6152 17.3354 15.7816 17.4192 15.9266L25.0778 27.7554L18.6974 31.4392L14.3352 29.709C14.0314 29.5886 13.6854 29.7126 13.5274 29.9987L13.2866 30.4347C13.1648 30.6552 13.1815 30.9263 13.3295 31.1301L15.893 34.6611C15.2429 35.702 14.7697 36.7578 15.0792 37.2939C15.3891 37.8306 16.5439 37.9515 17.7741 37.9122L19.5638 41.9282C19.6663 42.1583 19.8927 42.3083 20.1446 42.3132L20.6426 42.3226C20.9693 42.3288 21.2498 42.0912 21.2973 41.7678L21.9843 37.0963L28.3534 33.4191L34.8113 46.0508C34.8951 46.1959 35.019 46.3143 35.1776 46.369L36.1244 46.696C36.3057 46.7586 36.5039 46.7352 36.67 46.6393L37.9193 45.8911C38.1269 45.7712 38.2461 45.5414 38.2342 45.302L37.3904 28.2016L43.4662 24.6938C43.666 24.5784 43.8393 24.4219 43.9671 24.2297C44.5317 23.3805 46.0711 20.8831 45.4347 19.7809Z" clip-rule="evenodd" fill="" fill-opacity="1.000000" fill-rule="evenodd"/>
	</mask>
	<path id="Combined Shape" d="M45.4347 19.7809C44.7984 18.6787 41.8657 18.762 40.8475 18.8259C40.617 18.8405 40.3946 18.9124 40.1946 19.0278L34.0768 22.5599L19.7791 13.3367C19.5777 13.2068 19.3191 13.1951 19.1115 13.3149L17.8389 14.0228C17.6727 14.1187 17.5534 14.2786 17.5169 14.4669L17.3267 15.4504C17.2948 15.6152 17.3354 15.7816 17.4192 15.9266L25.0778 27.7554L18.6974 31.4392L14.3352 29.709C14.0314 29.5886 13.6854 29.7126 13.5274 29.9987L13.2866 30.4347C13.1648 30.6552 13.1815 30.9263 13.3295 31.1301L15.893 34.6611C15.2429 35.702 14.7697 36.7578 15.0792 37.2939C15.3891 37.8306 16.5439 37.9515 17.7741 37.9122L19.5638 41.9282C19.6663 42.1583 19.8927 42.3083 20.1446 42.3132L20.6426 42.3226C20.9693 42.3288 21.2498 42.0912 21.2973 41.7678L21.9843 37.0963L28.3534 33.4191L34.8113 46.0508C34.8951 46.1959 35.019 46.3143 35.1776 46.369L36.1244 46.696C36.3057 46.7586 36.5039 46.7352 36.67 46.6393L37.9193 45.8911C38.1269 45.7712 38.2461 45.5414 38.2342 45.302L37.3904 28.2016L43.4662 24.6938C43.666 24.5784 43.8393 24.4219 43.9671 24.2297C44.5317 23.3805 46.0711 20.8831 45.4347 19.7809Z" clip-rule="evenodd" fill="#FFFFFF" fill-opacity="1.000000" fill-rule="evenodd" mask="url(#mask_1_190)"/>
	<path id="Combined Shape" d="" fill="#979797" fill-opacity="0.000000" fill-rule="nonzero"/>
	<mask id="mask1_196" mask-type="alpha" maskUnits="userSpaceOnUse" x="5.692398" y="3.512939" width="49.181160" height="50.139099">
		<mask id="mask_1_196" fill="white">
			<path id="Combined Shape" d="M45.4347 19.7809C44.7984 18.6787 41.8657 18.762 40.8475 18.8259C40.617 18.8405 40.3946 18.9124 40.1946 19.0278L34.0768 22.5599L19.7791 13.3367C19.5777 13.2068 19.3191 13.1951 19.1115 13.3149L17.8389 14.0228C17.6727 14.1187 17.5534 14.2786 17.5169 14.4669L17.3267 15.4504C17.2948 15.6152 17.3354 15.7816 17.4192 15.9266L25.0778 27.7554L18.6974 31.4392L14.3352 29.709C14.0314 29.5886 13.6854 29.7126 13.5274 29.9987L13.2866 30.4347C13.1648 30.6552 13.1815 30.9263 13.3295 31.1301L15.893 34.6611C15.2429 35.702 14.7697 36.7578 15.0792 37.2939C15.3891 37.8306 16.5439 37.9515 17.7741 37.9122L19.5638 41.9282C19.6663 42.1583 19.8927 42.3083 20.1446 42.3132L20.6426 42.3226C20.9693 42.3288 21.2498 42.0912 21.2973 41.7678L21.9843 37.0963L28.3534 33.4191L34.8113 46.0508C34.8951 46.1959 35.019 46.3143 35.1776 46.369L36.1244 46.696C36.3057 46.7586 36.5039 46.7352 36.67 46.6393L37.9193 45.8911C38.1269 45.7712 38.2461 45.5414 38.2342 45.302L37.3904 28.2016L43.4662 24.6938C43.666 24.5784 43.8393 24.4219 43.9671 24.2297C44.5317 23.3805 46.0711 20.8831 45.4347 19.7809Z" clip-rule="evenodd" fill="" fill-opacity="1.000000" fill-rule="evenodd"/>
		</mask>
		<path id="Combined Shape" d="M45.4347 19.7809C44.7984 18.6787 41.8657 18.762 40.8475 18.8259C40.617 18.8405 40.3946 18.9124 40.1946 19.0278L34.0768 22.5599L19.7791 13.3367C19.5777 13.2068 19.3191 13.1951 19.1115 13.3149L17.8389 14.0228C17.6727 14.1187 17.5534 14.2786 17.5169 14.4669L17.3267 15.4504C17.2948 15.6152 17.3354 15.7816 17.4192 15.9266L25.0778 27.7554L18.6974 31.4392L14.3352 29.709C14.0314 29.5886 13.6854 29.7126 13.5274 29.9987L13.2866 30.4347C13.1648 30.6552 13.1815 30.9263 13.3295 31.1301L15.893 34.6611C15.2429 35.702 14.7697 36.7578 15.0792 37.2939C15.3891 37.8306 16.5439 37.9515 17.7741 37.9122L19.5638 41.9282C19.6663 42.1583 19.8927 42.3083 20.1446 42.3132L20.6426 42.3226C20.9693 42.3288 21.2498 42.0912 21.2973 41.7678L21.9843 37.0963L28.3534 33.4191L34.8113 46.0508C34.8951 46.1959 35.019 46.3143 35.1776 46.369L36.1244 46.696C36.3057 46.7586 36.5039 46.7352 36.67 46.6393L37.9193 45.8911C38.1269 45.7712 38.2461 45.5414 38.2342 45.302L37.3904 28.2016L43.4662 24.6938C43.666 24.5784 43.8393 24.4219 43.9671 24.2297C44.5317 23.3805 46.0711 20.8831 45.4347 19.7809Z" clip-rule="evenodd" fill="#FFFFFF" fill-opacity="1.000000" fill-rule="evenodd" mask="url(#mask_1_196)"/>
		<path id="Combined Shape" d="" fill="#979797" fill-opacity="0.000000" fill-rule="nonzero"/>
	</mask>
	<g mask="url(#mask1_196)">
		<rect id="Rectangle 7" x="34.536011" y="20.783813" width="1.308532" height="12.408354" transform="rotate(60 34.536011 20.783813)" fill="#EBECF2" fill-opacity="1.000000"/>
		<rect id="Rectangle 7" x="34.536011" y="20.783813" width="1.308532" height="12.408354" transform="rotate(60 34.536011 20.783813)" stroke="#979797" stroke-opacity="0" stroke-width="0.000000"/>
	</g>
	<g mask="url(#mask1_196)">
		<path id="Rectangle 5" d="M37.91 45.89C38.12 45.76 38.24 45.54 38.23 45.3L37.36 27.64L28.12 32.97L34.81 46.05C34.88 46.2 35.01 46.31 35.17 46.36L36.12 46.69C36.3 46.75 36.5 46.73 36.66 46.63L37.91 45.89Z" fill="#DEE1E3" fill-opacity="1.000000" fill-rule="evenodd"/>
		<path id="Rectangle 5" d="M37.36 27.64L28.12 32.97L34.81 46.05C34.89 46.19 35.01 46.31 35.17 46.36L36.12 46.69C36.3 46.75 36.5 46.73 36.66 46.63L37.91 45.89C38.12 45.77 38.24 45.54 38.23 45.3L37.36 27.64Z" stroke="#979797" stroke-opacity="0" stroke-width="0.000000"/>
	</g>
	<g mask="url(#mask1_196)">
		<g opacity="0.400000">
			<mask id="mask_1_204" fill="white">
				<path id="Combined Shape" d="M17.8366 37.8013L17.7476 37.8527L19.5638 41.9282C19.6663 42.1584 19.8927 42.3084 20.1446 42.3132L20.6426 42.3226C20.9693 42.3288 21.2498 42.0912 21.2974 41.7678L22.023 36.8334L21.56 37.1007C21.4167 37.1835 21.2622 37.2454 21.1007 37.2814C20.5503 37.4042 19.1544 37.6951 17.8366 37.8013Z" clip-rule="evenodd" fill="" fill-opacity="1.000000" fill-rule="evenodd"/>
			</mask>
			<path id="Combined Shape" d="M17.8366 37.8013L17.7476 37.8527L19.5638 41.9282C19.6663 42.1584 19.8927 42.3084 20.1446 42.3132L20.6426 42.3226C20.9693 42.3288 21.2498 42.0912 21.2974 41.7678L22.023 36.8334L21.56 37.1007C21.4167 37.1835 21.2622 37.2454 21.1007 37.2814C20.5503 37.4042 19.1544 37.6951 17.8366 37.8013Z" clip-rule="evenodd" fill="#DEE1E3" fill-opacity="1.000000" fill-rule="evenodd" mask="url(#mask_1_204)"/>
			<path id="Combined Shape" d="" fill="#979797" fill-opacity="0.000000" fill-rule="nonzero"/>
		</g>
	</g>
	<g mask="url(#mask1_196)">
		<mask id="mask_1_207" fill="white">
			<path id="Combined Shape" d="M28.2482 33.2134L37.3776 27.9426L37.4769 29.9539L29.956 36.5538L28.2482 33.2134L28.2482 33.2134Z" clip-rule="evenodd" fill="" fill-opacity="1.000000" fill-rule="evenodd"/>
		</mask>
		<path id="Combined Shape" d="M28.2482 33.2134L37.3776 27.9426L37.4769 29.9539L29.956 36.5538L28.2482 33.2134L28.2482 33.2134Z" clip-rule="evenodd" fill="#C5C6CC" fill-opacity="1.000000" fill-rule="evenodd" mask="url(#mask_1_207)"/>
		<path id="Combined Shape" d="" fill="#979797" fill-opacity="0.000000" fill-rule="nonzero"/>
	</g>
	<g mask="url(#mask1_196)">
		<path id="Combined Shape" d="M46.48 22.95L16.69 40.15C16.69 40.15 15.81 38.56 15.07 37.29C15.07 37.27 15.06 37.26 15.05 37.24C16.4 37.34 19.12 37.23 21.76 35.71L42.39 23.8C44.68 22.48 45.24 20.76 45.55 20.03C46.03 21.31 46.48 22.95 46.48 22.95Z" fill="#DEE1E3" fill-opacity="1.000000" fill-rule="evenodd"/>
		<path id="Combined Shape" d="M16.69 40.15C16.69 40.15 15.81 38.56 15.07 37.29C15.07 37.27 15.06 37.26 15.05 37.24C16.4 37.34 19.12 37.23 21.76 35.71L42.39 23.8C44.68 22.48 45.24 20.76 45.55 20.03C46.03 21.31 46.48 22.95 46.48 22.95L16.69 40.15Z" stroke="#979797" stroke-opacity="0" stroke-width="0.000000"/>
	</g>
</svg>
